<?xml version="1.0" encoding="utf-8"?>
<!-- Generator: Adobe Illustrator 18.1.1, SVG Export Plug-In . SVG Version: 6.00 Build 0)  -->
<svg version="1.1" id="Layer_1" xmlns="http://www.w3.org/2000/svg" xmlns:xlink="http://www.w3.org/1999/xlink" x="0px" y="0px"
	 width="256px" height="256px" viewBox="0 0 256 256" style="enable-background:new 0 0 256 256;" xml:space="preserve">
<style type="text/css">
	.st0{fill:#3C3B34;}
</style>
<g>
	<path class="st0" d="M41.1,107.7l0.3-0.3c0.4-1.5,1.1-6.7-3.9-11.6c-5-4.8-10.9-5-12.7-4.9L24.7,91c0,1.8,0.3,7.6,5.1,12.6
		C34.6,108.6,39.6,108.1,41.1,107.7z"/>
	<path class="st0" d="M141.9,168.1c3.5-3.6,3.7-7.8,3.7-9.1l0,0c-1.3-0.1-5.6,0.1-9.2,3.5c-0.7,0.6-1.2,1.3-1.6,1.9v-13.6
		c3.1,2.7,7.1,4.3,11.5,4.3H193c6.2,0,11.6-3.2,14.7-8H218c9.6,0,17.5-7.9,17.5-17.5v-16.2c1.6,0.1,4.4-0.3,7.1-3.1
		c3.5-3.6,3.7-7.8,3.7-9.1l0,0c-1.3-0.1-5.6,0.1-9.2,3.6c-0.6,0.6-1.1,1.2-1.5,1.8v-1c0-1.7-1.4-3-3-3c-1.7,0-3,1.3-3,3V118
		c-0.1-0.1-0.2-0.2-0.2-0.2c-3.6-3.5-7.9-3.6-9.2-3.6l0,0.1c0,1.3,0.2,5.5,3.7,9.1c2.1,2.2,4.2,2.9,5.8,3.1v3.2
		c0,6.3-5.1,11.5-11.5,11.5h-7.8c0.2-0.9,0.3-1.8,0.3-2.7c0.2-1.3,0.3-4.3-2.7-7.2c-3.3-3.2-7.1-3.3-8.3-3.2l0,0
		c0,1.2,0.2,4.9,3.3,8.2c0.6,0.6,1.1,1,1.7,1.4c0,0,0,0,0,0c0,6.3-5.1,11.5-11.5,11.5h-11c2.7-3.1,4.3-7.1,4.3-11.5v-23
		c2.1,0.2,6.3,0,10.4-4.3c4.8-5,5.1-10.8,5.1-12.6l-0.1-0.1c-1.8-0.1-7.7,0.1-12.7,4.9c-1.2,1.2-2.1,2.3-2.7,3.5V88.8
		c0-0.1,0-0.3,0-0.4c0,0,0-0.2,0-0.4c1.1,0.2,4.2,0.4,7.3-2.7c3.1-3.3,3.3-7.1,3.3-8.2l0,0c-1.2,0-5,0.1-8.3,3.2
		c-1,1-1.6,1.9-2.1,2.9c0.3-2.3,1.2-4.9,2.9-6.9c2.3-2.7,6-4.1,11-4.1c1.7,0,3-1.3,3-3c0-1.7-1.4-3-3-3c-6.8,0-12,2.1-15.5,6.2
		c-5.5,6.3-4.7,15.2-4.5,16.8v8.1c-0.6-1.4-1.6-3-3.2-4.5c-5-4.8-10.9-5-12.7-4.9l-0.1,0.1c0,1.8,0.3,7.6,5.1,12.6
		c4.5,4.6,9,4.5,10.9,4.2v16.6c-0.7-1.2-1.7-2.4-2.9-3.6c-6.2-6-13.6-6.2-15.8-6.1l-0.1,0.1c0,2.2,0.3,9.4,6.3,15.6
		c4.8,5,9.8,5.5,12.5,5.3v5.1c0,6.3-5.1,11.5-11.5,11.5h-22.6c-6.1,0-11.1-4.8-11.4-10.8l0.1,0.1c1.1,0.2,4.7,0.6,8.2-3
		c3.5-3.6,3.7-7.8,3.7-9.1l-0.1,0c-1.3-0.1-5.6,0.1-9.2,3.6c-1.7,1.6-2.4,3.2-2.8,4.6v-10.4c0.3,0.1,0.7,0.2,1.1,0.2
		c9.6,0,17.5-7.9,17.5-17.5V91.6c1.5,0.2,4.5-0.1,7.4-3.1c3.5-3.6,3.7-7.8,3.7-9.1l0,0c-1.3-0.1-5.6,0.1-9.2,3.6
		c-0.8,0.8-1.4,1.6-1.9,2.4V58.7c1.6,0.3,6.5,0.8,11.3-4.1c4.8-5,5.1-10.8,5.1-12.6l-0.1-0.1c-1.8-0.1-7.7,0.1-12.7,4.9
		c-1.9,1.8-3,3.7-3.6,5.4V35.7c0-1.7-1.4-3-3-3c-1.2,0-2.2,0.7-2.7,1.6c-0.5-2.5-1.9-5.5-4.9-8.4c-6.2-6-13.6-6.2-15.8-6.1l-0.1,0.1
		c0,2.2,0.3,9.4,6.3,15.6c6,6.2,12.2,5.5,14.1,5.1l0,0V63c-0.6-1.4-1.6-3-3.2-4.5c-5-4.8-10.9-5-12.7-4.9l-0.1,0.1
		c0,1.8,0.3,7.6,5.1,12.6c4.5,4.6,9,4.5,10.9,4.2V107c0,6.3-5.1,11.5-11.5,11.5c-0.4,0-0.8,0.1-1.1,0.2v-5.1c0,0,0,0,0-0.1v-9l0,0
		c1,0.2,4.2,0.6,7.4-2.7c3.1-3.2,3.3-7,3.3-8.2l0,0c-1.2,0-5,0.1-8.3,3.2c-1.3,1.3-2,2.6-2.4,3.8V82.3c0-9.6-7.9-17.5-17.5-17.5H114
		c-0.1-1.7-0.7-4-3-6.2c-3.6-3.4-7.8-3.5-9-3.5l0,0c0,1.3,0.2,5.4,3.6,8.9c0.3,0.3,0.5,0.5,0.8,0.7H96.2c-0.5-2.6-1.8-5.7-5-8.8
		c-6.2-6-13.6-6.2-15.8-6.1L75.3,50c0,2.2,0.3,9.4,6.3,15.6c5.6,5.8,11.4,5.6,13.7,5.2h21.9c6.3,0,11.5,5.1,11.5,11.5V91
		c-0.7-2.1-2.1-4.4-4.4-6.7c-6.2-6-13.6-6.2-15.8-6.1l-0.1,0.1c0,2.2,0.3,9.4,6.3,15.6c5.9,6.1,12,5.6,14,5.1v29c0,0,0,0,0,0v9.5
		c-0.6-1.4-1.6-2.8-3.1-4.2c-5-4.8-10.9-5-12.7-4.9l-0.1,0.1c0,1.8,0.3,7.6,5.1,12.6c4.4,4.5,8.8,4.5,10.8,4.2v6.9
		c0,6.3-5.1,11.5-11.5,11.5h-10.6c2.7-3.1,4.3-7.1,4.3-11.5v-37.6c1.4,0.2,4.5,0.1,7.5-3c3.4-3.5,3.6-7.6,3.6-8.8l0,0
		c-1.2,0-5.4,0.1-8.9,3.5c-1,0.9-1.6,1.9-2.1,2.8v-5.7c0-9.3-7.3-17-16.6-17.5c-0.5-1-1.1-2-2.2-3c-3.6-3.4-7.8-3.5-9-3.5l0,0
		c0,1.3,0.2,5.4,3.6,8.9c1.7,1.7,3.3,2.5,4.8,2.8c0.5,0.5,1.2,0.7,2,0.7c6.3,0,11.5,5.1,11.5,11.5v16.8c-0.6-1.3-1.6-2.7-3-4
		c-5-4.8-10.9-5-12.7-4.9l-0.1,0.1c0,1.8,0.3,7.6,5.1,12.6c4.3,4.4,8.7,4.5,10.7,4.2v17.2c-0.7-1.9-1.9-4-4-6
		c-5.7-5.5-12.4-5.7-14.4-5.6l-0.1,0.1c0,2,0.3,8.6,5.7,14.2c5.4,5.5,10.9,5.1,12.7,4.7c-0.2,6.2-5.2,11.1-11.4,11.1h-10H69.8v-4.8
		c1.6,0.2,5.3,0.3,9-3.5c4-4.1,4.2-9,4.2-10.4l-0.1-0.1c-1.5-0.1-6.4,0.1-10.6,4.1c-1.3,1.2-2.1,2.5-2.6,3.7v-24.8
		c1.4,0.2,4.5,0.1,7.5-3c3.4-3.5,3.6-7.6,3.6-8.8l0,0c-1.3-0.1-5.4,0.1-8.9,3.5c-1,0.9-1.6,1.9-2.1,2.7c0.3-6.1,5.3-10.9,11.4-10.9
		c1.7,0,3-1.3,3-3s-1.4-3-3-3c-9.6,0-17.5,7.9-17.5,17.5v9.6c-0.4-1-1.1-2.1-2.2-3.1c-3.3-3.2-7.2-3.3-8.4-3.3l0,0
		c0,1.2,0.2,5,3.4,8.3c3,3.1,6.1,3,7.3,2.8v26.5h-4.6c-5.5,0-10-3.8-11.2-9l0.1,0.1c1.3,0.3,5.4,0.7,9.4-3.4c4-4.1,4.2-9,4.2-10.4
		l0-0.1c-1.5-0.1-6.4,0.1-10.6,4.1c-2.3,2.2-3.1,4.5-3.4,6.3v-37.1c0,0.2,0.1,0.4,0.1,0.5l0.3,0.3c1.5,0.3,6.5,0.9,11.4-4.1
		c4.8-5,5.1-10.8,5.1-12.6l-0.1-0.1c-1.8-0.1-7.7,0.1-12.7,4.9c-2.7,2.6-3.7,5.2-4,7.3V88.1c0-1.7-1.4-3-3-3c-1.7,0-3,1.3-3,3v38.4
		c-0.8-1.8-2-3.7-4-5.6c-6.2-6-13.6-6.2-15.8-6.1l-0.1,0.1c0,2.2,0.3,9.4,6.3,15.6c5.5,5.7,11.2,5.6,13.6,5.2v16.5
		c0,4.4,1.6,8.4,4.3,11.5H31.8c-5.2,0-9.6-3.5-11-8.3c2.1,0.2,6.4,0.1,10.6-4.3c4.8-5,5.1-10.8,5.1-12.6l-0.1-0.1
		c-1.8-0.1-7.7,0.1-12.7,4.9c-2.5,2.4-3.6,4.9-4,6.9c-0.6-0.7-1.4-1.1-2.3-1.1c-0.5,0-1,0.1-1.4,0.3c-0.3-1.4-1-3-2.6-4.5
		c-3.3-3.2-7.2-3.3-8.4-3.3l0,0c0,1.2,0.2,5,3.4,8.3c2.3,2.3,4.6,2.8,6.1,2.9c0.4,9.3,8.1,16.7,17.5,16.7h27.4h4.6v2
		c0,0.6,0,1.2,0.1,1.7c-2.8-1.8-5.7-1.9-6.7-1.9l0,0c0,1.2,0.2,5,3.4,8.3c2.9,3,5.9,3,7.2,2.8c2.8,3.5,6.9,5.8,11.5,6.4
		c-1.6,0.4-3.5,1.2-5.3,3.2c-3.8,3.9-4,8.4-4,9.8l0,0.1c1.4,0.1,6-0.1,9.9-3.8c3.9-3.8,3.4-7.8,3.1-9l0,0h18.9
		c-0.9,0.4-1.9,1.1-2.8,2.1c-3.2,3.3-3.4,7.1-3.3,8.3l0,0c1.2,0,5.1-0.1,8.4-3.2c2.9-2.8,2.9-5.7,2.7-7.1
		c5.8,0.6,10.3,5.5,10.3,11.4v18.1c0,6.3-5.1,11.5-11.5,11.5c-1.7,0-3,1.3-3,3c0,1.7,1.3,3,3,3c9.6,0,17.5-7.9,17.5-17.5v-18.1
		c0-2.7-0.6-5.2-1.7-7.4c7.6-1.9,13.3-8.8,13.3-17v-4.9C136.3,171.3,139.1,171,141.9,168.1z M117.3,187.6c-3.1-2.8-7.2-4.5-11.7-4.5
		h-0.1c0,0,0,0,0,0H87.5c0.8-0.4,1.7-1,2.6-1.9c3.1-3.2,3.3-7,3.3-8.2l0,0c-1.2-0.1-5,0.1-8.3,3.2c-2.8,2.7-2.9,5.6-2.7,6.9h-1.1
		c-6.3,0-11.5-5.1-11.5-11.5v-2h13.5h10h23.8c4.4,0,8.4-1.6,11.5-4.3v10.8C128.7,182.5,123.6,187.6,117.3,187.6z"/>
	<path class="st0" d="M153.6,35.7c1,0.2,4.2,0.6,7.4-2.7c3.1-3.2,3.3-7,3.3-8.2l0,0c-1.2,0-5,0.1-8.3,3.2c-3.3,3.1-2.8,6.5-2.6,7.5
		L153.6,35.7z"/>
	<path class="st0" d="M251.1,137.4L251.1,137.4c-1.3-0.1-5.7,0-9.3,3.5c-0.5,0.5-1,1-1.3,1.6c-0.4-1.1-1.5-1.9-2.8-1.9
		c-1.7,0-3,1.4-3,3v17.5c-0.6-1.5-1.6-3.1-3.3-4.7c-5-4.8-10.9-5-12.6-4.9l-0.1,0.1c0,1.8,0.3,7.5,5,12.5c4.5,4.6,9,4.5,10.9,4.2
		c-0.3,6.1-5.3,10.9-11.4,10.9h-27.9c1-0.6,2.1-1.4,3.1-2.5c4.5-4.7,4.8-10.1,4.8-11.8l-0.1-0.1c-1.7-0.1-7.2,0.1-11.9,4.6
		c-3.8,3.7-4.1,7.6-3.9,9.7h-13c-5.9,0-10.8-4.5-11.4-10.3h19.6c0.9,0,1.7-0.4,2.2-1c1.4-0.1,3.3-0.7,5.2-2.7c3-3.1,3.2-6.7,3.2-7.8
		l0,0c-1.1,0-4.8,0.1-7.9,3.1c-0.9,0.8-1.5,1.7-1.9,2.5c-0.3-0.1-0.5-0.1-0.8-0.1h-24.1c-9.6,0-17.5,7.9-17.5,17.5v38.3
		c0,9.6,7.9,17.5,17.5,17.5c1.7,0,3-1.3,3-3c0-1.7-1.3-3-3-3c-6.3,0-11.5-5.1-11.5-11.5v-19.6c1,0.1,3-0.1,4.9-2
		c2.3-2.4,2.4-5.2,2.4-6l0,0c-0.9,0-3.7,0-6.1,2.3c-0.5,0.5-0.9,1-1.2,1.6v-7.5c1.4,0.1,3.7-0.3,6-2.7c3-3.1,3.2-6.7,3.2-7.8l0,0
		c-1.1,0-4.8,0.1-7.9,3.1c-0.5,0.5-0.9,1-1.2,1.4v-1c0-5.8,4.4-10.6,10-11.4c0.7,9,8.2,16.2,17.4,16.2h26.3c-0.2,1.9-0.2,6,4,10
		c4.7,4.5,10.1,4.8,11.8,4.8l0.1-0.1c0.1-1.7-0.1-7.2-4.6-11.9c-1.2-1.3-2.5-2.2-3.7-2.8h15.1c9.6,0,17.5-7.9,17.5-17.5v-18.1
		c1.7,0,4.2-0.5,6.7-3.1C250.9,142.9,251.2,138.7,251.1,137.4z"/>
</g>
<g>
</g>
<g>
</g>
<g>
</g>
<g>
</g>
<g>
</g>
<g>
</g>
</svg>
